<?xml version="1.0" encoding="UTF-8" ?>
<!DOCTYPE svg PUBLIC "-//W3C//DTD SVG 1.1//EN" "http://www.w3.org/Graphics/SVG/1.1/DTD/svg11.dtd">
<svg width="923pt" height="774pt" viewBox="0 0 923 774" version="1.1" xmlns="http://www.w3.org/2000/svg">
<g id="#ffffffff">
<path fill="#ffffffff" opacity="1.00" d=" M 550.56 27.72 C 559.69 26.96 568.81 25.81 577.99 26.17 C 588.25 26.27 598.49 27.00 608.74 27.45 C 617.92 27.83 626.92 29.84 636.01 31.05 C 648.26 33.39 660.54 35.83 672.48 39.50 C 687.65 44.43 702.88 49.49 716.98 57.05 C 727.37 62.67 737.79 68.47 746.77 76.22 C 753.03 81.60 759.32 87.11 764.16 93.85 C 768.25 99.59 772.33 105.43 775.05 111.98 C 778.74 120.34 780.28 129.42 781.45 138.43 C 782.22 144.46 780.57 150.40 779.31 156.25 C 776.94 168.37 771.75 179.79 765.16 190.18 C 760.33 198.70 753.80 206.05 747.35 213.36 C 735.47 227.52 721.27 239.55 706.30 250.31 C 697.61 257.07 688.68 263.53 679.29 269.28 C 666.36 277.53 653.38 285.77 639.66 292.67 C 623.30 301.52 606.75 310.05 589.85 317.83 C 577.73 323.02 565.71 328.43 553.54 333.50 C 539.48 338.94 525.57 344.87 511.08 349.10 C 509.33 349.71 507.37 350.42 506.44 352.15 C 506.66 355.64 507.87 358.97 508.67 362.35 C 510.47 369.02 511.16 375.91 512.20 382.73 C 513.54 391.73 511.51 400.81 512.36 409.83 C 512.50 411.20 512.96 413.09 514.59 413.34 C 519.00 414.21 523.54 413.96 528.02 414.26 C 533.88 414.46 539.59 415.95 545.40 416.65 C 560.76 418.29 575.88 421.59 590.89 425.12 C 603.17 427.25 615.39 429.87 627.26 433.70 C 636.52 436.30 645.97 438.19 655.24 440.78 C 665.47 444.19 675.81 447.29 686.33 449.71 C 697.39 452.84 708.52 455.74 719.77 458.09 C 728.17 459.40 736.50 461.22 744.98 461.93 C 753.58 463.31 762.27 464.50 771.00 464.07 C 782.84 463.33 794.89 463.41 806.42 460.27 C 812.35 459.25 818.32 458.45 824.09 456.67 C 827.89 456.07 831.80 456.34 835.58 455.42 C 841.16 454.10 846.75 452.79 852.29 451.26 C 860.31 448.79 868.59 447.25 876.52 444.48 C 882.99 442.46 890.06 439.82 896.80 442.21 C 902.56 444.57 904.03 452.70 900.50 457.53 C 897.37 461.93 892.21 464.07 887.69 466.72 C 852.51 486.06 812.55 498.19 772.14 496.69 C 764.32 495.93 756.55 494.84 748.71 494.35 C 734.24 492.10 720.12 488.08 706.15 483.78 C 685.40 476.83 665.03 468.82 644.38 461.60 C 632.96 457.84 621.80 453.37 610.35 449.69 C 601.18 446.79 592.13 443.45 582.75 441.25 C 577.93 440.11 573.12 438.95 568.35 437.66 C 550.40 432.53 531.95 429.34 513.41 427.25 C 512.64 431.94 512.47 436.70 512.54 441.45 C 512.57 447.00 513.88 452.46 513.69 458.02 C 513.56 462.64 513.67 467.30 512.91 471.88 C 511.93 477.61 506.95 481.85 501.57 483.42 C 495.55 484.48 488.66 483.29 484.33 478.67 C 478.69 472.76 475.68 465.01 472.28 457.72 C 468.09 448.96 465.13 439.70 461.25 430.80 C 459.61 427.22 458.92 422.85 455.72 420.24 C 453.05 420.42 451.07 422.50 449.20 424.19 C 441.05 432.69 432.93 441.27 424.04 449.01 C 402.93 466.13 379.72 480.70 355.02 492.05 C 330.53 504.17 304.74 513.38 278.77 521.76 C 274.16 523.28 269.45 524.44 264.78 525.74 C 234.95 534.81 204.12 540.59 173.04 543.11 C 163.56 543.68 154.06 543.04 144.59 542.50 C 139.04 542.18 133.52 541.37 128.18 539.84 C 121.59 538.16 115.65 534.67 110.01 530.98 C 101.70 525.33 96.33 515.22 97.22 505.12 C 98.90 494.49 104.59 484.71 112.36 477.37 C 118.33 471.92 124.48 466.38 131.91 463.02 C 137.10 461.00 142.31 458.95 147.74 457.67 C 146.57 459.17 145.39 460.67 144.11 462.09 C 134.43 467.31 125.14 473.52 117.71 481.72 C 112.90 486.83 109.27 493.18 107.94 500.11 C 106.63 506.81 109.07 514.25 114.54 518.45 C 122.80 525.10 133.60 527.37 143.96 527.88 C 152.26 528.21 160.61 529.00 168.90 528.05 C 175.55 527.34 182.26 527.04 188.85 525.82 C 200.11 523.73 211.55 522.54 222.67 519.67 C 231.17 517.45 239.79 515.65 248.25 513.26 C 271.17 506.35 294.22 499.65 316.26 490.21 C 324.80 486.45 333.58 483.21 341.85 478.87 C 351.47 473.82 361.40 469.36 370.68 463.70 C 384.32 455.33 398.03 446.77 409.67 435.69 C 414.37 431.14 419.78 427.02 422.59 420.93 C 415.33 418.81 407.71 419.96 400.28 419.16 C 392.51 418.05 384.78 419.98 377.01 419.77 C 368.94 419.59 360.85 419.67 352.82 420.49 C 341.27 421.77 329.67 422.48 318.06 423.07 C 311.31 423.50 304.52 424.21 297.76 423.44 C 300.07 422.18 302.56 421.28 305.16 420.84 C 319.52 418.97 333.90 417.19 348.28 415.36 C 353.45 414.61 358.69 415.27 363.88 414.75 C 372.59 413.56 381.37 413.12 390.13 412.41 C 400.77 412.45 411.37 411.06 422.01 411.28 C 425.60 411.26 429.35 411.25 432.67 409.71 C 435.22 408.33 436.77 405.76 438.56 403.57 C 442.27 398.67 446.66 393.78 452.64 391.72 C 456.64 390.75 460.97 390.93 464.91 392.14 C 471.23 394.56 476.20 399.54 479.99 405.02 C 482.01 408.07 484.82 410.49 488.05 412.22 C 489.87 407.37 489.54 402.13 489.68 397.05 C 489.91 387.66 488.90 378.26 486.90 369.10 C 486.19 365.95 485.69 362.67 484.13 359.80 C 481.98 358.86 479.68 359.93 477.60 360.51 C 469.66 363.37 461.75 366.33 453.60 368.54 C 427.60 375.71 401.80 383.71 375.39 389.28 C 366.17 391.25 357.20 394.22 347.91 395.87 C 340.34 397.28 332.74 398.57 325.22 400.26 C 310.27 403.75 294.96 405.34 279.82 407.75 C 267.92 410.26 255.73 410.65 243.74 412.46 C 234.88 413.56 226.11 415.62 217.15 415.52 C 206.36 415.42 195.59 416.23 184.82 416.61 C 171.24 417.90 157.60 416.88 144.00 416.71 C 140.81 416.68 137.62 416.67 134.44 416.47 C 123.30 415.59 112.12 415.15 100.99 414.11 C 87.83 412.02 74.63 410.15 61.58 407.45 C 50.10 404.64 38.85 400.96 27.56 397.46 C 24.46 396.40 21.14 395.47 18.63 393.27 C 16.73 391.34 18.13 388.40 18.14 386.06 C 24.63 386.66 30.61 389.34 36.73 391.34 C 48.39 395.21 60.45 397.68 72.42 400.34 C 80.91 401.81 89.38 403.43 98.00 403.89 C 111.65 405.33 125.35 406.81 139.11 406.45 C 149.75 406.11 160.39 406.66 171.02 406.18 C 176.68 405.61 182.37 405.44 188.04 405.09 C 202.33 403.61 216.65 402.43 230.94 400.88 C 239.03 399.87 247.00 398.08 255.09 397.07 C 268.76 395.26 282.15 391.95 295.73 389.63 C 305.49 387.92 314.99 385.04 324.62 382.72 C 344.26 378.31 363.60 372.69 382.91 367.02 C 402.51 361.86 421.56 354.93 440.91 348.95 C 446.97 347.04 452.94 344.81 459.11 343.25 C 461.34 342.58 463.76 342.09 465.60 340.58 C 466.65 339.71 467.01 338.02 466.02 336.97 C 463.15 332.87 458.45 330.55 455.48 326.53 C 452.14 322.01 448.66 317.24 447.56 311.61 C 446.57 304.54 447.18 297.03 450.69 290.70 C 458.78 275.41 472.58 264.28 481.79 249.78 C 484.84 245.27 485.55 239.02 482.74 234.23 C 479.28 228.25 474.24 223.40 468.89 219.12 C 456.79 208.81 443.60 199.87 431.77 189.24 C 427.16 184.85 422.73 180.27 418.25 175.75 C 416.77 174.22 415.24 172.71 414.14 170.88 C 410.84 163.89 406.02 157.51 404.35 149.85 C 402.41 140.88 402.58 131.62 403.64 122.55 C 406.74 104.36 417.44 88.19 431.12 76.12 C 438.99 68.38 448.37 62.44 457.83 56.85 C 469.86 49.96 482.53 44.17 495.65 39.66 C 501.26 37.86 506.92 36.23 512.57 34.54 C 524.95 30.86 537.85 29.69 550.56 27.72 M 571.89 53.56 C 564.58 53.91 557.27 54.17 550.00 54.89 C 523.92 57.58 498.09 64.56 474.88 76.91 C 474.02 77.38 473.32 78.05 472.68 78.77 C 467.93 80.16 464.05 83.30 459.97 85.96 C 451.52 91.59 443.33 98.07 437.62 106.59 C 433.09 113.21 429.34 120.66 428.54 128.75 C 427.88 134.52 429.42 140.26 431.36 145.64 C 434.86 154.66 441.65 161.87 448.61 168.37 C 458.52 177.28 469.30 185.13 480.15 192.84 C 488.36 199.18 496.73 205.61 503.13 213.87 C 508.41 220.58 511.30 228.79 513.15 237.03 C 514.25 241.59 512.89 246.24 511.58 250.60 C 509.37 257.48 506.50 264.27 502.02 270.00 C 493.81 280.70 483.43 289.53 475.45 300.42 C 473.95 302.52 472.14 305.05 473.01 307.78 C 474.40 310.90 476.93 313.30 479.21 315.79 C 483.82 320.28 488.10 325.09 492.18 330.07 C 504.74 324.59 517.44 319.44 530.04 314.07 C 542.47 309.11 554.52 303.28 566.63 297.59 C 580.27 290.98 593.89 284.33 607.28 277.22 C 625.18 267.33 642.93 257.15 660.18 246.16 C 663.95 243.60 668.03 241.36 671.10 237.92 C 672.98 237.46 674.52 236.21 676.10 235.13 C 692.23 223.15 707.90 210.37 721.49 195.49 C 728.89 188.04 735.08 179.50 740.60 170.59 C 743.50 165.84 745.89 160.75 747.45 155.39 C 749.27 149.16 751.04 142.61 749.87 136.08 C 747.58 122.80 739.68 111.09 729.83 102.17 C 720.21 93.74 709.27 86.95 697.98 81.03 C 673.11 68.76 645.99 61.76 618.72 57.31 C 603.20 55.27 587.59 52.83 571.89 53.56 Z" />
<path fill="#ffffffff" opacity="1.00" d=" M 576.35 499.35 C 580.12 497.64 584.46 496.00 588.60 497.46 C 595.42 499.94 598.27 509.82 593.30 515.29 C 588.78 519.93 582.72 522.62 577.89 526.89 C 569.45 534.43 560.84 542.00 554.37 551.37 C 551.67 555.37 548.96 559.39 546.73 563.68 C 544.28 568.37 543.04 573.56 541.49 578.59 C 540.89 580.87 540.04 583.21 540.38 585.61 C 540.99 587.66 543.25 588.48 545.18 588.71 C 551.46 589.51 557.83 589.06 564.12 589.76 C 570.00 590.13 575.76 591.37 581.55 592.37 C 598.32 594.55 614.71 599.62 629.82 607.19 C 646.68 615.67 661.26 628.27 673.04 642.94 C 676.77 647.67 680.04 653.07 680.87 659.14 C 681.83 665.52 676.42 671.97 669.96 672.13 C 667.38 672.11 664.37 671.41 663.03 668.97 C 660.37 664.22 659.76 658.64 657.20 653.84 C 647.26 635.31 630.23 621.25 611.15 612.82 C 604.41 609.75 597.17 608.08 590.12 605.91 C 583.77 603.94 577.23 602.69 570.77 601.15 C 565.88 599.98 560.81 599.55 555.80 600.16 C 562.65 608.79 573.88 611.88 581.94 619.07 C 590.25 626.50 597.53 635.73 600.22 646.75 C 601.88 652.71 601.33 658.95 600.98 665.05 C 600.45 676.78 594.75 687.59 587.77 696.77 C 582.11 704.04 575.66 710.77 568.13 716.12 C 556.21 724.46 543.51 731.86 529.76 736.74 C 521.59 739.60 513.25 741.98 504.74 743.56 C 493.95 745.59 483.01 747.60 471.99 746.80 C 457.58 746.62 443.00 746.49 428.92 743.11 C 410.10 739.13 391.79 731.44 376.93 719.07 C 367.64 710.82 360.66 699.48 359.29 686.99 C 358.28 675.65 363.46 664.86 369.84 655.83 C 376.26 647.33 384.10 639.93 392.85 633.86 C 406.67 623.59 422.06 615.64 437.87 608.92 C 444.36 606.32 450.81 603.60 457.54 601.66 C 465.93 599.28 474.26 596.62 482.81 594.81 C 490.72 592.91 498.80 591.96 506.84 590.82 C 507.81 586.35 508.22 581.79 509.22 577.34 C 511.02 568.91 514.40 560.91 518.24 553.23 C 520.59 548.38 524.56 544.59 527.18 539.90 C 524.98 539.36 522.71 539.00 520.46 539.37 C 511.68 540.58 502.87 542.03 493.97 541.69 C 479.83 541.32 465.12 540.29 452.33 533.65 C 443.47 529.56 434.70 522.94 431.77 513.21 C 430.80 509.80 430.05 505.52 432.73 502.67 C 434.06 500.94 436.85 499.15 438.75 501.11 C 440.22 504.42 440.41 508.31 442.78 511.19 C 446.26 515.61 451.30 518.39 456.27 520.80 C 460.87 523.06 465.90 524.22 470.91 525.13 C 476.86 526.17 482.95 526.66 488.97 525.95 C 495.31 525.15 501.76 525.41 508.03 524.07 C 519.99 521.53 532.16 519.76 543.77 515.82 C 555.48 512.15 565.43 504.71 576.35 499.35 M 503.59 601.52 C 499.82 602.16 496.05 602.81 492.27 603.37 C 485.21 604.36 478.54 606.98 471.65 608.66 C 467.76 609.58 463.95 610.85 460.51 612.91 C 454.09 614.43 448.22 617.49 442.27 620.22 C 439.48 621.49 436.80 622.97 434.26 624.68 C 424.32 627.49 416.09 633.94 407.77 639.77 C 397.42 646.90 388.03 655.70 381.47 666.50 C 377.43 673.13 376.00 681.72 378.99 689.03 C 380.72 693.54 383.49 697.71 387.38 700.64 C 395.68 707.07 405.36 711.61 415.41 714.57 C 424.76 716.91 434.31 718.60 443.97 718.89 C 448.98 718.97 454.31 720.28 459.05 718.03 L 459.31 718.76 C 467.49 719.24 475.69 717.99 483.57 715.82 C 492.57 716.16 500.96 712.52 509.59 710.58 C 523.70 705.55 536.99 698.09 548.56 688.56 C 555.38 682.91 561.00 675.79 564.71 667.73 C 566.31 664.21 567.04 660.07 565.68 656.36 C 564.02 651.51 560.30 647.75 556.35 644.65 C 552.06 641.32 547.65 637.79 542.25 636.52 C 538.63 633.10 534.21 630.79 529.59 629.04 C 528.02 625.11 524.91 622.19 521.06 620.55 C 517.94 615.96 514.35 611.71 511.35 607.05 C 510.79 605.18 510.30 603.27 509.34 601.57 C 507.51 600.77 505.48 601.28 503.59 601.52 Z" />
<path fill="#ffffffff" opacity="1.00" d=" M 684.44 713.51 C 691.19 712.75 697.89 715.74 703.04 719.95 C 706.92 723.19 709.65 727.57 712.02 731.98 C 714.28 736.08 714.06 741.00 713.40 745.48 C 711.84 752.16 706.89 757.89 700.59 760.57 C 687.03 767.12 668.71 758.43 665.17 743.81 C 663.84 736.69 664.72 728.88 668.77 722.75 C 672.06 717.30 678.41 714.59 684.44 713.51 Z" />
</g>
<g id="#fb9c95fe">
<path fill="#fb9c95" opacity="1.00" d=" M 571.89 53.56 C 587.59 52.83 603.20 55.27 618.72 57.31 C 645.99 61.76 673.11 68.76 697.98 81.03 C 709.27 86.95 720.21 93.74 729.83 102.17 C 739.68 111.09 747.58 122.80 749.87 136.08 C 751.04 142.61 749.27 149.16 747.45 155.39 C 745.89 160.75 743.50 165.84 740.60 170.59 C 735.08 179.50 728.89 188.04 721.49 195.49 C 707.90 210.37 692.23 223.15 676.10 235.13 C 674.52 236.21 672.98 237.46 671.10 237.92 C 670.37 237.97 668.90 238.05 668.16 238.09 C 674.08 232.23 681.66 228.41 687.48 222.43 C 690.08 219.72 692.65 216.97 695.69 214.73 C 698.49 212.72 699.18 209.02 701.78 206.81 C 706.29 202.82 710.52 198.46 715.64 195.22 C 718.53 193.00 722.22 191.52 724.07 188.20 C 726.50 184.14 728.63 179.91 730.66 175.64 C 732.61 171.41 735.91 167.93 737.45 163.49 C 739.47 157.68 741.85 151.96 743.19 145.93 C 744.00 142.08 744.19 137.62 741.75 134.29 C 738.81 131.95 735.10 130.83 731.69 129.36 C 727.42 127.57 722.70 128.30 718.22 127.72 C 714.54 127.26 711.37 125.19 708.18 123.48 C 705.50 126.65 702.27 129.28 698.82 131.57 C 701.64 131.01 704.57 130.47 707.39 131.38 C 704.47 132.78 701.42 133.85 698.34 134.81 C 698.43 136.11 698.53 137.41 698.64 138.72 C 702.00 137.33 705.55 136.33 709.22 136.35 C 708.98 136.76 708.50 137.58 708.26 137.99 C 705.29 138.61 702.22 139.05 699.55 140.58 C 695.13 143.04 691.21 146.30 686.77 148.74 C 683.19 150.69 679.70 152.84 676.75 155.69 C 678.19 155.49 679.63 155.27 681.08 155.05 C 681.79 155.05 683.22 155.04 683.93 155.04 C 679.29 158.21 674.27 160.77 669.31 163.39 C 667.10 164.60 664.56 164.73 662.11 164.87 C 662.06 164.17 661.97 162.75 661.93 162.04 C 667.95 156.81 674.87 152.74 681.78 148.80 C 686.26 146.56 690.73 144.12 694.17 140.39 C 692.84 139.99 691.52 139.60 690.21 139.21 C 690.27 136.65 690.32 134.09 690.35 131.53 C 687.42 132.83 684.72 134.60 681.73 135.75 C 677.28 136.94 672.71 135.57 668.39 134.50 C 666.08 137.32 662.63 138.36 659.10 138.47 C 658.31 141.91 658.35 145.64 656.76 148.83 C 653.51 152.66 648.80 154.78 644.78 157.67 C 645.09 159.02 645.47 160.37 645.61 161.76 C 643.04 166.39 637.56 168.19 634.23 172.15 C 630.81 176.48 625.85 179.69 624.02 185.13 C 621.94 185.64 619.80 185.97 617.84 186.84 C 613.46 190.46 610.66 195.91 605.71 198.84 C 601.20 199.59 596.62 198.76 592.11 198.40 C 592.07 200.88 592.07 203.37 592.13 205.86 C 591.27 204.67 590.73 203.14 589.47 202.32 C 587.59 202.01 585.67 202.13 583.79 202.13 C 584.64 203.39 585.52 204.65 586.41 205.89 C 584.33 206.17 582.14 206.28 580.27 207.31 C 576.39 209.26 574.05 213.09 570.75 215.78 C 565.82 220.19 560.17 224.35 557.65 230.71 C 555.99 234.88 550.91 236.01 548.97 239.96 C 545.81 246.31 542.86 252.77 540.47 259.45 C 538.19 259.78 535.86 259.92 533.68 260.68 C 531.42 262.42 529.50 264.55 527.19 266.24 C 525.52 267.25 525.57 269.37 525.12 271.05 C 524.49 270.13 523.87 269.22 523.27 268.31 C 522.48 270.74 522.18 273.49 520.51 275.52 C 517.20 278.41 512.55 278.75 508.82 280.87 C 507.09 282.14 505.89 283.96 504.55 285.61 C 502.83 287.93 500.76 290.22 500.28 293.18 C 499.44 297.74 499.14 302.39 499.02 307.02 C 499.05 309.88 499.03 312.91 500.31 315.54 C 501.75 317.31 504.14 317.96 506.21 318.73 C 509.14 319.77 512.25 318.84 515.13 318.10 C 508.30 320.88 501.65 324.89 494.19 325.49 C 490.71 324.01 488.23 320.99 485.45 318.55 C 481.72 315.24 478.78 311.20 476.27 306.92 C 477.80 303.36 479.30 299.73 481.62 296.60 C 488.20 287.91 496.68 280.86 503.00 271.98 C 505.69 268.30 508.60 264.74 510.67 260.66 C 513.16 255.80 514.58 250.50 516.44 245.38 C 517.54 242.09 518.80 238.62 518.15 235.10 C 517.01 229.11 514.13 223.48 509.96 219.03 C 507.36 216.22 505.35 212.95 503.29 209.75 C 501.23 206.48 498.01 204.26 495.03 201.92 C 489.57 197.73 484.82 192.66 479.02 188.91 C 470.33 183.20 461.57 177.25 454.91 169.14 C 449.94 164.00 445.43 158.47 441.04 152.84 C 442.90 152.32 444.75 151.68 446.69 151.51 C 449.72 153.37 452.01 156.21 455.10 157.99 C 458.22 159.80 461.57 161.39 465.15 162.00 C 466.72 162.41 467.85 161.08 468.97 160.24 C 473.81 155.23 479.76 151.52 485.20 147.22 C 491.64 142.78 497.05 136.98 503.80 132.99 C 506.87 131.47 509.88 129.77 512.38 127.39 C 516.57 123.48 521.53 120.37 525.15 115.85 C 515.16 118.20 506.22 123.55 497.04 127.97 C 489.71 131.34 482.68 135.42 474.94 137.83 C 477.79 135.54 480.65 133.23 483.17 130.57 C 479.88 130.88 476.89 132.33 474.01 133.84 C 478.79 130.23 483.85 126.99 489.23 124.36 C 492.17 123.01 494.71 120.98 496.97 118.68 C 503.21 114.48 510.02 111.26 516.46 107.38 C 522.11 103.94 528.35 101.62 533.93 98.06 C 538.31 95.12 542.83 92.37 546.98 89.10 C 544.18 89.07 541.38 89.05 538.59 89.05 C 538.66 89.93 538.73 90.82 538.81 91.70 C 533.00 90.53 526.94 89.56 521.08 91.02 C 512.28 93.18 503.37 95.24 495.11 99.06 C 485.01 103.33 475.59 109.16 467.12 116.13 C 461.88 120.48 457.25 125.48 452.23 130.07 C 450.02 131.92 447.73 133.77 446.18 136.23 C 443.96 139.40 442.74 143.18 440.33 146.22 C 440.06 146.35 439.52 146.60 439.25 146.73 C 434.25 142.59 434.33 135.75 432.02 130.18 C 430.30 125.83 432.14 121.04 434.19 117.14 C 438.19 110.38 442.40 103.59 448.21 98.21 C 452.19 94.48 456.60 91.27 460.84 87.85 C 464.68 84.67 469.60 82.84 472.68 78.77 C 473.32 78.05 474.02 77.38 474.88 76.91 C 498.09 64.56 523.92 57.58 550.00 54.89 C 557.27 54.17 564.58 53.91 571.89 53.56 M 587.96 92.94 C 575.06 101.78 561.49 109.59 548.87 118.83 C 537.63 127.02 525.09 133.38 514.62 142.61 C 513.37 143.79 512.66 145.38 511.88 146.86 C 520.91 143.92 529.26 139.28 537.44 134.54 C 548.21 128.58 559.87 124.50 570.75 118.78 C 576.83 115.77 583.21 113.39 589.21 110.22 C 596.09 106.58 603.37 103.81 610.36 100.38 C 615.55 97.82 620.91 95.63 626.10 93.06 C 628.22 92.13 629.69 90.29 631.13 88.54 C 621.49 87.74 612.03 84.43 602.28 85.48 C 596.83 86.38 592.45 90.01 587.96 92.94 M 657.68 99.75 C 652.37 102.75 647.00 105.64 641.71 108.67 C 633.87 112.76 625.87 116.60 618.50 121.54 C 610.89 125.93 603.54 130.77 595.79 134.92 C 588.64 139.43 581.34 143.71 574.07 148.03 C 563.53 153.32 553.34 159.24 543.15 165.15 C 536.47 169.55 529.86 174.07 522.69 177.64 C 522.41 178.57 522.14 179.50 521.88 180.44 C 520.64 180.22 519.32 179.49 518.12 180.18 C 513.99 181.96 509.94 184.03 506.44 186.88 C 507.89 188.52 509.37 190.14 510.88 191.74 C 522.29 183.48 536.00 179.55 548.64 173.65 C 558.15 170.09 567.27 165.62 576.57 161.56 C 584.14 157.93 592.17 155.38 599.69 151.63 C 605.74 148.49 612.21 146.29 618.34 143.32 C 627.37 139.64 636.33 135.80 645.49 132.46 C 656.69 127.41 668.38 123.57 679.66 118.70 C 682.99 117.50 686.21 115.96 689.10 113.90 C 682.14 109.53 675.23 105.07 668.25 100.73 C 666.51 99.66 664.79 98.52 662.83 97.92 C 660.95 97.84 659.31 98.98 657.68 99.75 M 560.16 139.21 C 558.49 139.77 557.46 141.23 556.39 142.52 C 549.51 144.49 543.04 147.59 536.55 150.55 C 532.99 152.12 529.31 153.40 525.89 155.27 C 526.72 155.53 528.38 156.05 529.21 156.31 C 529.03 156.69 528.66 157.45 528.47 157.82 C 525.42 158.87 521.97 157.69 518.95 158.99 C 508.61 163.55 497.96 167.52 488.24 173.34 C 488.27 174.83 489.72 175.45 490.73 176.25 C 494.86 178.99 498.79 182.03 502.91 184.79 C 508.48 181.07 513.85 177.05 519.48 173.42 C 523.28 170.94 526.62 167.79 530.63 165.61 C 539.07 160.80 547.38 155.77 555.40 150.28 C 557.38 148.71 558.71 146.50 560.34 144.59 C 560.31 145.66 560.29 146.74 560.27 147.81 C 567.09 143.58 574.82 140.34 580.25 134.26 C 573.10 133.25 566.61 136.76 560.16 139.21 M 638.35 153.44 C 631.97 155.68 625.25 157.01 619.28 160.30 C 604.98 166.68 589.80 170.89 575.61 177.54 C 568.84 180.54 561.67 182.45 554.70 184.87 C 541.84 189.80 528.69 194.07 516.31 200.15 C 517.27 204.37 518.88 208.38 520.70 212.30 C 523.51 218.43 523.38 225.31 523.07 231.90 C 532.29 222.67 544.52 217.56 555.00 210.01 C 561.36 205.20 568.37 201.40 575.05 197.07 C 581.40 193.09 587.62 188.90 594.09 185.13 C 602.54 180.41 610.53 174.95 618.60 169.64 C 623.33 166.51 628.69 164.52 633.47 161.46 C 639.19 157.81 645.28 154.79 650.96 151.07 C 646.69 151.41 642.43 152.09 638.35 153.44 Z" />
</g>
<g id="#fcaab3fe">
<path fill="#fcaab3" opacity="1.00" d=" M 459.97 85.96 C 464.05 83.30 467.93 80.16 472.68 78.77 C 469.60 82.84 464.68 84.67 460.84 87.85 C 456.60 91.27 452.19 94.48 448.21 98.21 C 442.40 103.59 438.19 110.38 434.19 117.14 C 432.14 121.04 430.30 125.83 432.02 130.18 C 434.33 135.75 434.25 142.59 439.25 146.73 C 439.52 146.60 440.06 146.35 440.33 146.22 C 442.74 143.18 443.96 139.40 446.18 136.23 C 447.73 133.77 450.02 131.92 452.23 130.07 C 448.77 135.50 444.42 140.63 443.07 147.11 C 448.60 145.40 453.59 142.42 458.63 139.65 C 471.37 132.58 483.16 123.66 496.97 118.68 C 494.71 120.98 492.17 123.01 489.23 124.36 C 483.85 126.99 478.79 130.23 474.01 133.84 C 476.89 132.33 479.88 130.88 483.17 130.57 C 480.65 133.23 477.79 135.54 474.94 137.83 C 482.68 135.42 489.71 131.34 497.04 127.97 C 506.22 123.55 515.16 118.20 525.15 115.85 C 521.53 120.37 516.57 123.48 512.38 127.39 C 509.88 129.77 506.87 131.47 503.80 132.99 C 506.98 130.25 509.79 127.09 512.08 123.56 C 509.54 123.76 507.09 124.55 504.92 125.87 C 500.60 128.40 496.01 130.39 491.56 132.64 C 478.51 139.72 464.80 145.45 451.88 152.75 C 455.52 155.32 459.14 158.01 463.24 159.83 C 465.03 160.73 467.06 160.37 468.97 160.24 C 467.85 161.08 466.72 162.41 465.15 162.00 C 461.57 161.39 458.22 159.80 455.10 157.99 C 452.01 156.21 449.72 153.37 446.69 151.51 C 444.75 151.68 442.90 152.32 441.04 152.84 C 445.43 158.47 449.94 164.00 454.91 169.14 C 461.57 177.25 470.33 183.20 479.02 188.91 C 484.82 192.66 489.57 197.73 495.03 201.92 C 498.01 204.26 501.23 206.48 503.29 209.75 C 505.35 212.95 507.36 216.22 509.96 219.03 C 514.13 223.48 517.01 229.11 518.15 235.10 C 518.80 238.62 517.54 242.09 516.44 245.38 C 514.58 250.50 513.16 255.80 510.67 260.66 C 508.60 264.74 505.69 268.30 503.00 271.98 C 496.68 280.86 488.20 287.91 481.62 296.60 C 479.30 299.73 477.80 303.36 476.27 306.92 C 478.78 311.20 481.72 315.24 485.45 318.55 C 488.23 320.99 490.71 324.01 494.19 325.49 C 501.65 324.89 508.30 320.88 515.13 318.10 C 534.39 310.63 553.18 301.95 571.64 292.69 C 593.39 282.73 614.27 271.00 634.88 258.88 C 645.97 251.96 657.84 246.19 668.16 238.09 C 668.90 238.05 670.37 237.97 671.10 237.92 C 668.03 241.36 663.95 243.60 660.18 246.16 C 642.93 257.15 625.18 267.33 607.28 277.22 C 593.89 284.33 580.27 290.98 566.63 297.59 C 554.52 303.28 542.47 309.11 530.04 314.07 C 517.44 319.44 504.74 324.59 492.18 330.07 C 488.10 325.09 483.82 320.28 479.21 315.79 C 476.93 313.30 474.40 310.90 473.01 307.78 C 472.14 305.05 473.95 302.52 475.45 300.42 C 483.43 289.53 493.81 280.70 502.02 270.00 C 506.50 264.27 509.37 257.48 511.58 250.60 C 512.89 246.24 514.25 241.59 513.15 237.03 C 511.30 228.79 508.41 220.58 503.13 213.87 C 496.73 205.61 488.36 199.18 480.15 192.84 C 469.30 185.13 458.52 177.28 448.61 168.37 C 441.65 161.87 434.86 154.66 431.36 145.64 C 429.42 140.26 427.88 134.52 428.54 128.75 C 429.34 120.66 433.09 113.21 437.62 106.59 C 443.33 98.07 451.52 91.59 459.97 85.96 Z" />
<path fill="#fcaab3" opacity="1.00" d=" M 404.35 149.85 C 406.02 157.51 410.84 163.89 414.14 170.88 C 411.23 167.78 408.32 164.59 406.32 160.81 C 404.56 157.43 404.47 153.56 404.35 149.85 Z" />
</g>
<g id="#f5958efe">
<path fill="#f5958e" opacity="1.00" d=" M 698.82 131.57 C 702.27 129.28 705.50 126.65 708.18 123.48 C 711.37 125.19 714.54 127.26 718.22 127.72 C 722.70 128.30 727.42 127.57 731.69 129.36 C 735.10 130.83 738.81 131.95 741.75 134.29 C 744.19 137.62 744.00 142.08 743.19 145.93 C 741.85 151.96 739.47 157.68 737.45 163.49 C 735.91 167.93 732.61 171.41 730.66 175.64 C 728.63 179.91 726.50 184.14 724.07 188.20 C 722.22 191.52 718.53 193.00 715.64 195.22 C 710.52 198.46 706.29 202.82 701.78 206.81 C 699.18 209.02 698.49 212.72 695.69 214.73 C 692.65 216.97 690.08 219.72 687.48 222.43 C 681.66 228.41 674.08 232.23 668.16 238.09 C 657.84 246.19 645.97 251.96 634.88 258.88 C 614.27 271.00 593.39 282.73 571.64 292.69 C 553.18 301.95 534.39 310.63 515.13 318.10 C 512.25 318.84 509.14 319.77 506.21 318.73 C 504.14 317.96 501.75 317.31 500.31 315.54 C 499.03 312.91 499.05 309.88 499.02 307.02 C 499.14 302.39 499.44 297.74 500.28 293.18 C 500.76 290.22 502.83 287.93 504.55 285.61 C 505.89 283.96 507.09 282.14 508.82 280.87 C 512.55 278.75 517.20 278.41 520.51 275.52 C 522.18 273.49 522.48 270.74 523.27 268.31 C 523.87 269.22 524.49 270.13 525.12 271.05 C 525.57 269.37 525.52 267.25 527.19 266.24 C 529.50 264.55 531.42 262.42 533.68 260.68 C 535.86 259.92 538.19 259.78 540.47 259.45 C 542.86 252.77 545.81 246.31 548.97 239.96 C 550.91 236.01 555.99 234.88 557.65 230.71 C 560.17 224.35 565.82 220.19 570.75 215.78 C 574.05 213.09 576.39 209.26 580.27 207.31 C 582.14 206.28 584.33 206.17 586.41 205.89 C 585.52 204.65 584.64 203.39 583.79 202.13 C 585.67 202.13 587.59 202.01 589.47 202.32 C 590.73 203.14 591.27 204.67 592.13 205.86 C 592.07 203.37 592.07 200.88 592.11 198.40 C 596.62 198.76 601.20 199.59 605.71 198.84 C 610.66 195.91 613.46 190.46 617.84 186.84 C 619.80 185.97 621.94 185.64 624.02 185.13 C 625.85 179.69 630.81 176.48 634.23 172.15 C 637.56 168.19 643.04 166.39 645.61 161.76 C 645.47 160.37 645.09 159.02 644.78 157.67 C 648.80 154.78 653.51 152.66 656.76 148.83 C 658.35 145.64 658.31 141.91 659.10 138.47 C 662.63 138.36 666.08 137.32 668.39 134.50 C 672.71 135.57 677.28 136.94 681.73 135.75 C 684.72 134.60 687.42 132.83 690.35 131.53 C 690.32 134.09 690.27 136.65 690.21 139.21 C 691.52 139.60 692.84 139.99 694.17 140.39 C 690.73 144.12 686.26 146.56 681.78 148.80 C 674.87 152.74 667.95 156.81 661.93 162.04 C 661.97 162.75 662.06 164.17 662.11 164.87 C 664.56 164.73 667.10 164.60 669.31 163.39 C 674.27 160.77 679.29 158.21 683.93 155.04 C 683.22 155.04 681.79 155.05 681.08 155.05 C 688.39 150.83 696.59 148.31 703.59 143.54 C 705.70 142.23 707.10 140.14 708.26 137.99 C 708.50 137.58 708.98 136.76 709.22 136.35 C 705.55 136.33 702.00 137.33 698.64 138.72 C 698.53 137.41 698.43 136.11 698.34 134.81 C 701.42 133.85 704.47 132.78 707.39 131.38 C 704.57 130.47 701.64 131.01 698.82 131.57 Z" />
</g>
<g id="#fc9227fe">
<path fill="#fc9227" opacity="1.00" d=" M 646.42 343.89 C 646.83 345.00 647.83 346.13 647.25 347.38 C 645.91 351.29 643.21 354.51 640.91 357.87 C 632.66 370.36 622.00 380.96 612.14 392.13 C 609.41 395.02 606.52 397.78 604.24 401.05 C 608.11 405.01 613.98 404.12 618.99 404.26 C 626.15 404.06 633.40 405.41 640.47 403.73 C 641.71 395.81 641.17 387.30 645.09 380.05 C 646.39 377.49 649.18 376.16 651.91 375.70 C 653.77 376.69 653.52 379.23 653.20 380.98 C 651.94 385.82 648.83 390.11 648.46 395.19 C 648.15 397.09 650.08 398.76 651.93 398.51 C 656.22 398.43 660.54 397.22 664.82 398.27 C 667.23 398.64 669.59 400.09 670.48 402.45 C 671.64 405.44 671.99 408.67 672.55 411.81 C 677.21 413.25 680.90 407.73 685.57 409.39 C 689.12 411.03 691.25 414.98 695.15 415.98 C 699.29 415.68 702.70 412.50 706.88 412.38 C 712.12 413.35 714.29 418.82 717.09 422.70 C 721.52 422.01 726.42 421.17 730.53 423.50 C 733.38 425.39 735.77 427.88 738.61 429.80 C 742.86 425.51 748.56 422.10 754.79 422.44 C 758.65 423.26 761.91 426.04 765.92 426.34 C 768.20 425.30 769.98 423.41 772.30 422.44 C 777.73 421.63 782.63 424.52 787.27 426.90 C 786.12 422.36 784.39 418.00 782.15 413.90 C 778.89 407.90 777.98 399.88 781.98 394.00 C 785.59 388.37 791.24 383.60 798.05 382.72 C 805.09 382.51 811.17 387.70 814.33 393.65 C 817.19 398.78 816.97 404.84 818.57 410.36 C 818.89 410.45 819.54 410.62 819.86 410.71 C 822.59 408.14 824.59 404.90 827.29 402.29 C 832.69 396.95 838.48 391.91 845.08 388.09 C 850.89 384.62 857.16 381.49 863.99 380.75 C 867.14 380.47 870.68 380.66 873.22 382.81 C 876.99 385.96 878.72 391.17 878.21 395.98 C 877.10 401.18 873.90 405.62 870.83 409.85 C 865.06 417.04 858.39 423.52 851.09 429.14 C 842.69 436.01 834.35 442.99 826.73 450.73 C 825.09 452.29 824.65 454.58 824.09 456.67 C 818.32 458.45 812.35 459.25 806.42 460.27 C 805.85 456.60 805.26 452.90 805.49 449.18 C 805.57 446.27 806.05 443.33 805.53 440.45 C 804.19 437.40 800.91 435.69 797.82 434.93 C 794.57 434.48 791.36 435.66 788.12 435.62 C 783.88 435.70 780.28 432.97 776.17 432.46 C 772.07 434.10 768.72 437.88 764.05 437.90 C 760.65 437.53 758.08 434.91 754.98 433.70 C 751.50 435.08 748.95 438.17 745.33 439.26 C 741.71 440.24 737.41 440.11 734.46 437.53 C 730.44 434.11 727.95 429.08 723.16 426.54 C 719.98 429.00 717.10 433.72 712.47 432.62 C 710.09 430.61 708.69 427.69 706.26 425.75 C 704.04 424.46 701.13 424.64 699.01 426.04 C 695.90 428.21 693.92 431.76 690.48 433.48 C 687.80 434.31 685.01 432.56 683.39 430.53 C 681.46 426.81 684.64 422.18 682.42 418.56 C 678.63 417.19 675.03 420.00 672.06 422.04 C 667.78 425.39 662.61 427.22 657.91 429.86 C 655.70 430.97 653.48 432.31 650.98 432.58 C 648.14 432.73 646.25 429.04 647.75 426.71 C 650.70 421.80 655.72 418.71 659.63 414.66 C 661.96 411.93 663.47 408.52 664.26 405.04 C 663.56 400.99 658.53 400.01 655.12 400.69 C 652.51 402.91 650.87 406.05 648.22 408.23 C 644.63 411.23 640.51 413.94 635.79 414.66 C 629.89 415.61 623.92 414.55 617.99 414.68 C 611.64 414.82 605.32 414.16 598.98 414.20 C 595.76 414.13 592.36 414.07 589.44 412.55 C 587.08 411.23 586.89 407.99 587.72 405.70 C 588.96 403.06 591.56 401.49 593.79 399.77 C 600.13 395.21 606.00 390.03 611.29 384.29 C 619.32 376.63 626.77 368.42 634.14 360.16 C 638.28 354.77 642.29 349.28 646.42 343.89 M 796.25 398.51 C 794.06 398.88 792.33 400.99 792.32 403.21 C 791.88 410.11 795.87 416.79 801.74 420.25 C 803.95 421.38 807.65 421.26 808.71 418.61 C 810.53 413.28 808.72 407.53 806.30 402.69 C 804.66 398.89 799.88 398.31 796.25 398.51 Z" />
</g>
<g id="#ffffffff">
<path fill="#ffffffff" opacity="0.92" d=" M 377.01 419.77 C 384.78 419.98 392.51 418.05 400.28 419.16 C 396.12 419.60 392.00 420.36 387.82 420.55 C 359.37 421.24 331.00 423.77 302.59 425.25 C 297.27 425.49 292.13 426.97 286.90 427.82 C 272.58 429.92 258.04 430.60 243.90 433.83 C 232.49 436.34 220.68 436.84 209.50 440.40 C 201.57 442.80 193.21 443.53 185.40 446.37 C 180.92 448.00 176.38 449.48 171.78 450.74 C 166.28 452.25 161.14 454.74 155.82 456.76 C 151.81 458.28 147.83 459.94 144.11 462.09 C 145.39 460.67 146.57 459.17 147.74 457.67 C 142.31 458.95 137.10 461.00 131.91 463.02 C 135.18 459.80 139.82 458.88 143.72 456.72 C 147.04 454.92 150.44 453.23 154.09 452.23 C 158.89 450.95 163.13 448.23 167.91 446.91 C 172.10 445.68 176.38 444.78 180.57 443.56 C 184.41 442.44 188.09 440.81 192.01 439.97 C 198.54 438.54 205.17 437.55 211.59 435.63 C 214.72 434.69 217.88 433.79 221.13 433.32 C 229.91 432.05 238.62 430.37 247.27 428.42 C 250.86 427.62 254.47 426.88 258.14 426.56 C 264.81 426.03 271.41 424.79 278.08 424.24 C 285.06 423.64 291.90 422.14 298.77 420.81 C 300.87 420.34 303.06 420.28 305.16 420.84 C 302.56 421.28 300.07 422.18 297.76 423.44 C 304.52 424.21 311.31 423.50 318.06 423.07 C 329.67 422.48 341.27 421.77 352.82 420.49 C 360.85 419.67 368.94 419.59 377.01 419.77 Z" />
</g>
<g id="#fe9322fe">
<path fill="#fe9322" opacity="1.00" d=" M 511.35 607.05 C 514.35 611.71 517.94 615.96 521.06 620.55 C 514.77 628.56 507.70 636.17 503.64 645.65 C 499.55 654.90 493.04 663.53 492.26 673.90 C 494.66 673.45 497.03 672.60 498.79 670.83 C 508.22 662.37 515.22 651.67 522.20 641.21 C 524.96 637.34 527.53 633.33 529.59 629.04 C 534.21 630.79 538.63 633.10 542.25 636.52 C 539.85 642.23 537.93 648.22 534.45 653.42 C 530.08 659.96 525.52 666.40 520.33 672.32 C 514.65 678.96 508.23 684.93 502.79 691.79 C 498.08 697.71 492.52 702.86 487.19 708.21 C 485.08 710.22 484.33 713.10 483.57 715.82 C 475.69 717.99 467.49 719.24 459.31 718.76 L 459.05 718.03 C 455.92 709.33 452.79 700.61 448.66 692.32 C 444.69 684.36 441.78 675.93 438.25 667.78 C 435.72 661.81 434.32 655.46 432.75 649.20 C 431.67 644.78 430.69 640.13 431.78 635.61 C 432.63 631.97 433.76 628.39 434.26 624.68 C 436.80 622.97 439.48 621.49 442.27 620.22 C 448.22 617.49 454.09 614.43 460.51 612.91 C 465.72 617.19 471.53 620.88 475.82 626.17 C 478.74 629.95 480.79 634.29 483.45 638.25 C 485.25 636.81 487.05 635.31 488.33 633.36 C 494.56 623.50 501.48 613.60 511.35 607.05 Z" />
</g>
</svg>
